<svg xmlns="http://www.w3.org/2000/svg" version="1.1" xmlns:xlink="http://www.w3.org/1999/xlink" xmlns:svgjs="http://svgjs.dev/svgjs" width="1500" height="1687" viewBox="0 0 1500 1687"><g transform="matrix(1,0,0,1,0,0)"><svg viewBox="0 0 320 360" data-background-color="#ffffff" preserveAspectRatio="xMidYMid meet" height="1687" width="1500" xmlns="http://www.w3.org/2000/svg" xmlns:xlink="http://www.w3.org/1999/xlink"><g id="tight-bounds" transform="matrix(1,0,0,1,0,0)"><svg viewBox="0 0 320 360" height="360" width="320"><g><svg></svg></g><g><svg viewBox="0 0 320 360" height="360" width="320"><g><path d="M219.58 41.008c0.707 0 6.365 2.829 9.547 3.89-1.061 0.354-3.536-0.707-6.365-1.768 0.707 0 2.122 0.354 3.536 1.06-0.707-0.707-6.011-2.475-6.718-3.182M166.895 30.047c1.061-0.354 13.436 1.414 19.094 1.768 0.354-0.354-0.707-0.354-2.122-0.707 1.768-0.354 5.304 0.707 7.779 1.06-7.425 0.354-15.558-1.768-22.629-1.06-2.475 0-0.707-0.707-2.122-1.061M156.641 30.047c6.365 0 11.315 0 2.121 0.707-1.061-0.354-2.475-0.354-2.121-0.707M256.707 59.395c0.707 0 3.536 3.182 4.95 4.243-0.354 0.354-3.182-2.475-4.596-3.536 0.354 0.354 0 0-0.354-0.707M249.635 54.798c-2.829-2.475-3.889-2.475-4.243-3.889 2.475 1.414 4.243 2.829 4.243 3.889M204.022 32.522c0.354-0.354 1.061 0.354 2.829 0.707-2.122-0.354-1.768 0-1.061 0.707-2.475-0.354-3.182-0.707-2.475-1.414 1.414 0.707 1.768 0.354 0.707 0M103.602 36.765c0-0.354 1.414-1.061 2.475-1.414-1.061 0.707-0.707 1.061 1.061 0.353 0 0.354-2.122 1.061-3.536 1.768 0.707-0.354 1.414-1.414 0-0.707M211.094 28.986c-1.061 0.354-4.95-1.768-8.84-2.475-2.122-0.707 8.486 1.768 8.84 2.475M2.475 203.66c2.122 8.84 0.707 8.486 0 0M2.829 150.621c0.354-1.414 0.707-5.304 1.06-4.95-1.061 8.486-2.829 12.376-3.182 18.74 1.061-5.657-0.354 3.182-0.707 5.304 0.354 2.829 0.354-1.768 1.061-1.06 0.707 1.061-1.414 15.912-0.707 7.779-0.707 7.425 0 15.558 1.414 17.679-1.768 11.315 7.072 36.773 8.84 42.077 0.354 0.354 0-1.768 0.707-0.353 0.707 4.597 3.889 7.779 4.95 12.729 1.061 1.414 5.304 9.193 6.011 10.962 1.414 2.829 2.122 2.475 3.536 5.303 4.243 8.133 10.961 15.912 17.326 23.337 20.508 24.044 51.978 43.845 86.984 50.918 35.006 7.425 71.779 2.122 100.419-11.669 1.768-1.061 1.414-1.414 3.536-2.122 9.901-3.182 21.923-13.436 28.641-17.326 3.182-3.536 11.669-9.547 12.73-13.082 6.011-4.95 12.022-13.083 15.204-18.387 1.768-2.829 3.182-2.829 3.889-4.597-0.354 0 5.657-7.425 7.426-11.668-0.707 0-1.768 2.122-1.768 0 12.729-24.398 19.801-57.282 15.911-79.912 0.707 27.934-6.365 59.05-19.801 78.851-6.011 12.729-18.387 26.519-29.701 36.42-1.768 1.768-3.536 3.889-5.658 5.304-6.718 5.657-14.144 10.254-21.922 14.497-18.387 10.254-38.895 19.094-62.94 19.447 41.37-3.536 78.497-24.398 99.006-49.856-15.558 15.204-22.276 21.215-39.602 30.055-1.414 2.475-13.083 7.425-20.862 9.547 4.597-2.122 14.144-5.657 17.326-8.486-25.812 12.376-54.453 19.448-81.326 15.558 10.254 0 24.751 0.354 38.541-2.121 2.122-0.707 3.182-1.414 5.658-1.768 26.873-6.011 52.685-19.094 71.072-37.481-10.608 9.547-26.519 20.862-36.774 24.398 9.547-5.304 26.873-15.558 32.53-23.337-11.315 11.315-32.53 22.63-45.966 27.58-2.122 0.354 1.414-1.414-2.122 0-4.243 1.061-2.475 1.061-3.536 1.768-16.265 4.597-35.006 8.486-50.563 7.072-2.829-0.354-3.889-1.061-6.365-1.061-2.829-0.354-5.304-0.354-8.486-0.354-12.376-1.414-25.812-6.365-35.713-10.607-5.304-2.475-10.608-4.243-15.912-7.426-4.243-2.475-7.779-5.304-11.314-8.132-13.436-9.901-24.751-19.801-35.36-33.945-19.094-26.519-28.994-59.757-27.58-92.641 1.414-32.884 14.497-65.061 35.359-88.752-1.061 1.061 1.414-2.475 3.536-4.596 0 0.707-0.354 1.768 2.122-0.707 2.122-2.475-0.707-0.707 0.353-2.122 21.923-24.044 60.111-43.492 99.36-44.199 1.414-1.061 3.889-2.475 6.718-1.768 0 0.354-1.768 0.354-1.768 0.354 3.889-0.354 7.425-0.354 9.193 0.353 0.354-0.354-1.414-0.707 0-0.707 2.475 0.707 3.182 0 4.597 0.707-1.061 0-2.122 0-2.829 0.354 8.84 0 14.497 2.122 23.337 2.829-4.597-1.061-5.657-1.061-9.193-2.122 3.889 0.707 5.657 1.414 7.425 1.061-0.707 0-0.354-1.061 0.354-0.707 7.072 1.768 7.779 2.475 15.204 4.95 0.707-0.707-3.182-1.061-4.243-2.122 7.072 2.475 13.436 4.243 17.68 7.072-1.414-1.061-5.657-2.475-8.84-3.889-0.354 0.354 1.061 0.707 1.414 1.414-3.536-1.768-8.486-3.536-13.436-4.243 4.243 1.061 7.072 2.475 8.84 3.182-3.889-0.707-8.84-3.182-14.498-4.243 9.193 2.829 26.519 9.193 37.127 14.851-3.889-2.475-8.486-4.243-10.961-5.657 2.122 0.354 4.597 1.768 4.597 1.06 2.475 1.061 5.657 3.536 7.425 3.89-3.182-2.122-9.547-5.304-11.668-6.365 26.519 12.022 50.21 32.177 65.414 57.989 1.414 2.475 3.536 8.133 5.304 8.84-0.354-1.768-1.768-2.829-3.182-5.657 0.707 0 0.707-1.061 0-2.122-1.414-1.768 0 1.414-1.415-0.354-6.365-11.669-14.144-21.923-26.165-33.237 6.718 6.365 1.768 1.768 0.353-0.354 9.193 8.133 19.801 21.923 24.398 28.995-0.707-1.061-1.061-1.768-0.707-1.768 8.486 14.497 13.79 27.58 19.094 46.32 0.354 0.354 0-1.414 0.707-0.353 3.536 14.851 4.597 27.227 4.243 38.541 2.829-19.094-3.536-48.796-14.851-72.133-1.414-2.829-1.414-0.707-2.829-3.889 0-1.061-1.061-3.182-1.768-4.597-14.144-23.337-31.47-39.956-51.978-53.038 1.414 0.707 4.243 2.829 4.244 2.475-38.188-25.105-82.387-28.641-118.807-20.862-2.475 1.061-3.536 2.122-6.365 3.536 5.304-1.768 8.486-2.122 13.437-3.183 1.061-1.061-4.597 0.354-2.122-0.707 0.354 0.354 4.95-0.707 6.011-0.353 0 0.354-1.414 0.707-1.768 1.06 11.669-2.475 23.691-2.829 33.945-2.121-6.011 0.354-16.972-0.707-20.508 1.061 3.536-0.354 8.486-0.707 11.668-0.354-4.243 0-12.022 0.354-15.558 0.707-0.354-0.354 5.657-1.061 1.768-1.06-1.768 0.354-4.597 0.354-5.657 1.414-30.409 2.829-60.111 18.74-80.973 37.481-4.243 3.536-9.193 7.425-12.375 11.314-7.779 8.84-12.729 17.68-18.387 25.459 3.536-7.425 11.315-18.74 20.508-28.287 9.193-9.547 19.094-17.68 24.398-21.923 0 1.414 8.486-5.304 11.669-7.425-2.122 1.768 1.414-0.707 2.121-0.354 11.315-6.718 20.508-9.193 30.763-13.083-2.475 0.707-4.597 1.414-4.951 1.061 2.475-0.707 3.889-1.414 3.536-1.768-9.901 2.829-25.459 9.547-37.834 16.972 22.276-15.204 50.564-24.398 78.497-24.751 27.934-0.707 55.16 6.365 76.729 17.68 14.497 6.365 28.287 18.033 39.249 29.348 3.182 2.829 0.707-0.707 5.304 4.243-1.414-0.707-2.475-1.414-0.707 0.707 2.829 3.182-0.707-2.475 3.889 3.182-0.354 0-1.768-1.768-1.768-1.061 12.376 10.961 21.923 30.762 27.58 43.846-1.414-5.304-4.95-12.729-7.779-18.033 8.486 15.558 11.315 24.751 14.851 38.541 1.414 1.061-0.707-4.95 0.707-2.121 0.354 2.122 0.707 8.84 2.122 9.9-1.061-6.718-2.829-14.851-4.243-16.265 1.061 0.707-1.768-8.133-3.536-10.254-0.707-5.657-5.657-15.558-9.901-22.984-15.204-29.702-42.431-54.099-72.839-67.536 0-0.707-1.768-1.414-2.476-2.121-30.055-12.729-66.122-16.265-100.773-8.133-35.006 8.486-67.889 28.641-91.227 57.636 1.061-3.536 9.901-10.254 10.255-13.083-10.254 10.961-21.215 25.459-28.641 41.016-7.779 15.558-12.022 31.47-13.79 43.138" fill="#202046" fill-rule="nonzero" stroke="none" stroke-width="1" stroke-linecap="butt" stroke-linejoin="miter" stroke-miterlimit="10" stroke-dasharray="" stroke-dashoffset="0" font-family="none" font-weight="none" font-size="none" text-anchor="none" style="mix-blend-mode: normal" data-fill-palette-color="tertiary"></path></g><g transform="matrix(1,0,0,1,48,101.02276997892886)"><svg viewBox="0 0 224 157.95446004214227" height="157.95446004214227" width="224"><g><svg viewBox="0 0 224 157.95446004214227" height="157.95446004214227" width="224"><g><svg viewBox="0 0 224 157.95446004214227" height="157.95446004214227" width="224"><g><svg viewBox="0 0 224 157.95446004214227" height="157.95446004214227" width="224"><g id="textblocktransform"><svg viewBox="0 0 224 157.95446004214227" height="157.95446004214227" width="224" id="textblock"><g><svg viewBox="0 0 224 109.64019448946515" height="109.64019448946515" width="224"><g transform="matrix(1,0,0,1,0,0)"><svg width="224" viewBox="3.93 -37.45 77.11999999999999 37.75" height="109.64019448946515" data-palette-color="#202046"><path d="M30 0L25.55 0 12.58-17.2 7.88-17.2 7.88 0 3.93 0 3.93-37 7.88-37 7.88-20.75 12.65-20.75 24.63-37 28.93-37 15.7-19.07 30 0ZM53.9 0L33 0 33-37 36.95-37 36.95-3.45 53.9-3.45 53.9 0ZM77.3-18L81.05-18 81.05-0.38Q77.27 0.3 73.57 0.3L73.57 0.3Q67.55 0.3 63.58-1.61 59.62-3.53 57.61-7.66 55.6-11.8 55.6-18.45L55.6-18.45Q55.6-28.38 59.98-32.91 64.37-37.45 72.72-37.45L72.72-37.45Q76.75-37.45 80.35-36.45L80.35-36.45 80.35-33Q76.72-34.02 72.9-34.02L72.9-34.02Q68.52-34.02 65.63-32.52 62.75-31.03 61.25-27.59 59.75-24.15 59.75-18.4L59.75-18.4Q59.75-12.83 61.23-9.46 62.72-6.1 65.71-4.6 68.7-3.1 73.35-3.1L73.35-3.1Q75.52-3.1 77.3-3.35L77.3-3.35 77.3-18Z" opacity="1" transform="matrix(1,0,0,1,0,0)" fill="#202046" class="wordmark-text-0" data-fill-palette-color="primary" id="text-0"></path></svg></g></svg></g><g transform="matrix(1,0,0,1,0,125.63933023014586)"><svg viewBox="0 0 224 32.31512981199642" height="32.31512981199642" width="224"><g transform="matrix(1,0,0,1,0,0)"><svg width="224" viewBox="2.2 -38.6 390.91 56.400000000000006" height="32.31512981199642" data-palette-color="#b5b6b7"><path d="M9.9 0L9.9 0Q9.1 0 8.78-0.48 8.45-0.95 8.55-1.6L8.55-1.6 14.65-36.9 17.7-36.9 11.5-1.5Q11.45-1.05 11.18-0.53 10.9 0 9.9 0ZM2.2-37.25L2.2-37.25Q2.2-37.8 2.53-38.2 2.85-38.6 3.75-38.6L3.75-38.6 28.95-38.6Q29.8-38.6 30.13-38.2 30.45-37.8 30.45-37.25L30.45-37.25Q30.45-36.75 30.13-36.33 29.8-35.9 28.95-35.9L28.95-35.9 3.75-35.9Q2.85-35.9 2.53-36.33 2.2-36.75 2.2-37.25ZM27-0.05L27-0.05Q26.2-0.25 26-0.73 25.8-1.2 25.95-2.15L25.95-2.15 32.1-37Q32.2-37.85 32.75-38.23 33.3-38.6 33.9-38.6L33.9-38.6Q34.45-38.6 34.85-38.23 35.25-37.85 35.1-37L35.1-37 28.7-0.9Q28.45-0.4 28.1-0.13 27.75 0.15 27-0.05ZM42.25 0L42.25 0Q41.3 0 41.07-0.43 40.85-0.85 40.95-1.35L40.95-1.35 43.25-13.9Q43.4-14.7 43.5-15.68 43.6-16.65 43.4-17.38 43.2-18.1 42.45-18.1L42.45-18.1Q41.55-18.1 40.25-16.98 38.95-15.85 37.45-13.95 35.95-12.05 34.37-9.78 32.8-7.5 31.35-5.2 29.9-2.9 28.7-0.9L28.7-0.9 28.15-5.8Q29.2-7.35 30.47-9.35 31.75-11.35 33.22-13.4 34.7-15.45 36.3-17.18 37.9-18.9 39.55-19.98 41.2-21.05 42.9-21.05L42.9-21.05Q44.6-21.05 45.45-19.98 46.3-18.9 46.47-17.25 46.65-15.6 46.3-13.9L46.3-13.9 43.95-1.35Q43.9-1.15 43.65-0.58 43.4 0 42.25 0ZM54.85 0.25L54.85 0.25Q53.2 0.25 51.9-0.43 50.6-1.1 49.95-2.55 49.3-4 49.5-6.35L49.5-6.35Q49.65-8.15 50.2-10.08 50.75-12 51.55-13.8 52.35-15.6 53.25-16.85L53.25-16.85Q54.55-18.85 56.57-19.85 58.6-20.85 60.7-20.85L60.7-20.85Q61.85-20.85 62.97-20.53 64.1-20.2 64.85-19.58 65.6-18.95 65.6-17.95L65.6-17.95Q65.6-16.85 64.82-15.5 64.05-14.15 62.45-12.75 60.85-11.35 58.35-10L58.35-10Q57.2-9.4 55.67-8.63 54.15-7.85 52.87-7.25 51.6-6.65 51.15-6.4L51.15-6.4 51.75-9.4Q52.4-9.75 53.3-10.2 54.2-10.65 55.27-11.25 56.35-11.85 57.45-12.6L57.45-12.6Q60.25-14.35 61.37-15.35 62.5-16.35 62.5-17.1L62.5-17.1Q62.5-17.5 61.95-17.75 61.4-18 60.6-18L60.6-18Q59.5-18 58.12-17.48 56.75-16.95 55.65-15.4L55.65-15.4Q54.8-14.15 54.1-12.4 53.4-10.65 52.95-8.9 52.5-7.15 52.4-5.8L52.4-5.8Q52.35-4.3 52.92-3.48 53.5-2.65 54.9-2.65L54.9-2.65Q56.25-2.65 57.37-3.25 58.5-3.85 59.27-4.6 60.05-5.35 60.35-5.75L60.35-5.75Q61.2-6.9 61.87-7 62.55-7.1 63.05-6.7L63.05-6.7Q63.45-6.4 63.52-5.75 63.6-5.1 62.6-3.8L62.6-3.8Q62.3-3.4 61.27-2.4 60.25-1.4 58.62-0.58 57 0.25 54.85 0.25ZM110.24-37.3L110.24-37.3Q110.24-36.9 109.92-36.45 109.59-36 109.04-35.6L109.04-35.6 91.99-20.5 88.84-20.65 88.84-21.25 91.54-23.45 107.14-37.7Q107.54-38.1 108.04-38.35 108.54-38.6 108.99-38.6L108.99-38.6Q109.64-38.6 109.94-38.18 110.24-37.75 110.24-37.3ZM104.14 0L104.14 0Q103.54 0 103.12-0.35 102.69-0.7 102.39-1.15L102.39-1.15 90.99-17.5 88.89-20.5 88.84-21.15 92.19-21.05 105.09-2.5Q105.39-2.05 105.49-1.7 105.59-1.35 105.49-1L105.49-1Q105.34-0.5 104.94-0.25 104.54 0 104.14 0ZM84.04 0L84.04 0Q83.24 0 82.89-0.63 82.54-1.25 82.69-1.9L82.69-1.9 88.89-37Q89.04-37.7 89.42-38.15 89.79-38.6 90.69-38.6L90.69-38.6Q91.54-38.6 91.77-38.1 91.99-37.6 91.89-36.75L91.89-36.75 85.69-1.85Q85.64-1.25 85.32-0.63 84.99 0 84.04 0ZM111.14 0.25L111.14 0.25Q109.69 0.25 108.84-0.9 107.99-2.05 107.99-4.35L107.99-4.35Q107.99-6.1 108.51-8.38 109.04-10.65 109.86-12.83 110.69-15 111.64-16.4L111.64-16.4Q113.34-18.95 115.79-19.88 118.24-20.8 120.79-20.8L120.79-20.8 125.99-20.8 125.99-17.8 120.79-17.8Q119.24-17.8 117.26-17.2 115.29-16.6 113.94-14.55L113.94-14.55Q113.19-13.4 112.51-11.5 111.84-9.6 111.41-7.7 110.99-5.8 110.99-4.65L110.99-4.65Q110.99-3.95 111.09-3.38 111.19-2.8 111.79-2.8L111.79-2.8Q112.64-2.8 114.34-4.25 116.04-5.7 118.74-9.1L118.74-9.1Q120.59-11.45 122.06-13.6 123.54-15.75 124.79-17.8L124.79-17.8 126.64-17.8Q126.09-15.9 125.16-13.93 124.24-11.95 123.19-10.28 122.14-8.6 121.24-7.5L121.24-7.5Q119.49-5.25 117.81-3.5 116.14-1.75 114.51-0.75 112.89 0.25 111.14 0.25ZM123.64 0L123.64 0Q122.64 0 122.44-0.5 122.24-1 122.29-1.35L122.29-1.35 124.79-13.25 124.79-20.8 126.84-20.8Q127.84-20.8 128.24-20.3 128.64-19.8 128.44-18.75L128.44-18.75 125.34-1.35Q125.29-1.15 125.04-0.58 124.79 0 123.64 0ZM135.44 0L135.44 0Q134.84 0 134.39-0.38 133.94-0.75 134.04-1.45L134.04-1.45 139.59-32.5Q139.69-33.1 140.09-33.43 140.49-33.75 140.99-33.75L140.99-33.75Q141.64-33.75 142.14-33.33 142.64-32.9 142.49-32.1L142.49-32.1 137.14-1.35Q137.04-0.65 136.51-0.33 135.99 0 135.44 0ZM131.54-19.5L131.54-19.5Q131.54-20.05 131.89-20.43 132.24-20.8 133.09-20.8L133.09-20.8 145.19-20.8Q146.04-20.8 146.36-20.43 146.69-20.05 146.69-19.5L146.69-19.5Q146.69-18.95 146.36-18.53 146.04-18.1 145.19-18.1L145.19-18.1 133.09-18.1Q132.24-18.1 131.89-18.53 131.54-18.95 131.54-19.5ZM146.03-1.45L146.03-1.45Q146.03-2.25 146.68-2.9L146.68-2.9 164.83-20.25 165.78-20.8Q166.38-20.8 166.86-20.45 167.33-20.1 167.33-19.4L167.33-19.4Q167.33-19 167.18-18.78 167.03-18.55 166.78-18.3L166.78-18.3 148.48-0.6 147.48 0Q146.88 0 146.46-0.43 146.03-0.85 146.03-1.45ZM163.98-1.5L163.98-1.5Q163.98-0.95 163.66-0.48 163.33 0 162.43 0L162.43 0 147.48 0 148.68-2.95 162.43-2.95Q163.33-2.95 163.66-2.5 163.98-2.05 163.98-1.5ZM149.38-19.3L149.38-19.3Q149.38-19.85 149.71-20.33 150.03-20.8 150.93-20.8L150.93-20.8 165.78-20.8 164.48-17.8 150.93-17.8Q150.03-17.8 149.71-18.3 149.38-18.8 149.38-19.3ZM183.13-1.6L183.13-1.6 189.38-37Q189.53-37.7 189.9-38.15 190.28-38.6 191.18-38.6L191.18-38.6Q192.08-38.6 192.28-38.1 192.48-37.6 192.38-36.75L192.38-36.75 186.13-1.5Q186.03-1.05 185.78-0.53 185.53 0 184.53 0L184.53 0Q183.73 0 183.38-0.48 183.03-0.95 183.13-1.6ZM203.68-1.45L203.68-1.45Q203.68-0.9 203.33-0.45 202.98 0 202.18 0L202.18 0 184.53 0 184.53-2.75 202.18-2.75Q202.98-2.75 203.33-2.38 203.68-2 203.68-1.45ZM208.43 0.25L208.43 0.25Q206.98 0.25 206.13-0.9 205.28-2.05 205.28-4.35L205.28-4.35Q205.28-6.1 205.8-8.38 206.33-10.65 207.15-12.83 207.98-15 208.93-16.4L208.93-16.4Q210.63-18.95 213.08-19.88 215.53-20.8 218.08-20.8L218.08-20.8 223.28-20.8 223.28-17.8 218.08-17.8Q216.53-17.8 214.55-17.2 212.58-16.6 211.23-14.55L211.23-14.55Q210.48-13.4 209.8-11.5 209.13-9.6 208.7-7.7 208.28-5.8 208.28-4.65L208.28-4.65Q208.28-3.95 208.38-3.38 208.48-2.8 209.08-2.8L209.08-2.8Q209.93-2.8 211.63-4.25 213.33-5.7 216.03-9.1L216.03-9.1Q217.88-11.45 219.35-13.6 220.83-15.75 222.08-17.8L222.08-17.8 223.93-17.8Q223.38-15.9 222.45-13.93 221.53-11.95 220.48-10.28 219.43-8.6 218.53-7.5L218.53-7.5Q216.78-5.25 215.1-3.5 213.43-1.75 211.8-0.75 210.18 0.25 208.43 0.25ZM220.93 0L220.93 0Q219.93 0 219.73-0.5 219.53-1 219.58-1.35L219.58-1.35 222.08-13.25 222.08-20.8 224.13-20.8Q225.13-20.8 225.53-20.3 225.93-19.8 225.73-18.75L225.73-18.75 222.63-1.35Q222.58-1.15 222.33-0.58 222.08 0 220.93 0ZM246.77 0.25L246.77 0.25Q244.67 0.25 244.05-1.48 243.42-3.2 243.92-6.05L243.92-6.05 245.77-16.05 248.02-20.8Q248.62-20.8 249.05-20.35 249.47-19.9 249.27-19L249.27-19 246.82-6.05Q246.47-4.1 246.65-3.45 246.82-2.8 247.52-2.8L247.52-2.8Q248.42-2.8 249.77-3.95 251.12-5.1 252.62-6.95 254.12-8.8 255.6-10.95 257.07-13.1 258.3-15.15 259.52-17.2 260.22-18.7L260.22-18.7Q260.72-19.75 261.15-20.28 261.57-20.8 262.37-20.8L262.37-20.8Q262.77-20.8 262.95-20.68 263.12-20.55 263.32-20.35L263.32-20.35 262.77-17.1Q262.12-15.95 260.95-13.88 259.77-11.8 258.2-9.38 256.62-6.95 254.77-4.75 252.92-2.55 250.9-1.15 248.87 0.25 246.77 0.25ZM232.42 0.25L232.42 0.25Q230.37 0.25 229.7-1.48 229.02-3.2 229.67-6.95L229.67-6.95 231.87-19.2Q232.02-20 232.57-20.4 233.12-20.8 233.67-20.8L233.67-20.8Q234.22-20.8 234.65-20.35 235.07-19.9 234.92-19L234.92-19 232.67-6.95Q232.27-4.8 232.37-3.78 232.47-2.75 233.17-2.75L233.17-2.75Q234.07-2.75 235.67-4.15 237.27-5.55 239.12-7.88 240.97-10.2 242.77-13.03 244.57-15.85 245.87-18.65L245.87-18.65Q246.32-19.65 246.77-20.23 247.22-20.8 248.02-20.8L248.02-20.8 247.37-15.85Q246.67-14.45 245.47-12.4 244.27-10.35 242.72-8.15 241.17-5.95 239.45-4.05 237.72-2.15 235.92-0.95 234.12 0.25 232.42 0.25ZM266.87-12.75L266.87-12.75Q266.37-12.35 265.62-12.58 264.87-12.8 264.32-13.6L264.32-13.6 261.12-18.2 263.32-20.35 266.72-15.45Q267.32-14.6 267.37-13.9 267.42-13.2 266.87-12.75ZM288.77 0.25L288.77 0.25Q286.77 0.25 285.59-1.03 284.42-2.3 283.87-4.28 283.32-6.25 283.32-8.3L283.32-8.3Q283.32-9.7 283.49-11.53 283.67-13.35 283.94-15.15 284.22-16.95 284.44-18.3 284.67-19.65 284.72-20.1L284.72-20.1Q285.22-22.95 286.04-25.65 286.87-28.35 288.27-30.7 289.67-33.05 291.94-34.83 294.22-36.6 297.67-37.6 301.12-38.6 305.97-38.6L305.97-38.6 309.47-38.6Q310.02-38.6 310.37-38.2 310.72-37.8 310.72-37.25L310.72-37.25Q310.72-36.65 310.32-36.27 309.92-35.9 309.22-35.9L309.22-35.9 305.87-35.9Q301.67-35.9 298.72-35.02 295.77-34.15 293.87-32.65 291.97-31.15 290.82-29.3 289.67-27.45 289.04-25.45 288.42-23.45 288.02-21.6L288.02-21.6Q287.72-20 287.29-17.55 286.87-15.1 286.57-12.53 286.27-9.95 286.27-8L286.27-8Q286.27-6.65 286.49-5.4 286.72-4.15 287.32-3.33 287.92-2.5 288.97-2.5L288.97-2.5Q290.22-2.5 291.62-3.48 293.02-4.45 294.47-5.98 295.92-7.5 297.24-9.25 298.57-11 299.64-12.58 300.72-14.15 301.37-15.15L301.37-15.15Q302.67-17.1 303.42-18.25 304.17-19.4 304.64-19.93 305.12-20.45 305.52-20.63 305.92-20.8 306.42-20.8L306.42-20.8 305.72-16.35Q303.67-13.2 301.54-10.23 299.42-7.25 297.27-4.9 295.12-2.55 292.99-1.15 290.87 0.25 288.77 0.25ZM302.67 0L302.67 0Q301.77-0.05 301.57-0.58 301.37-1.1 301.42-1.6L301.42-1.6 304.52-19.2Q304.67-20.05 305.12-20.43 305.57-20.8 306.47-20.8L306.47-20.8Q307.22-20.8 307.44-20.38 307.67-19.95 307.57-19.2L307.57-19.2 304.47-1.6Q304.37-1.1 304.04-0.53 303.72 0.05 302.67 0ZM327.27-14.15L327.27-14.15Q326.62-14.1 326.14-14.53 325.67-14.95 325.67-15.5L325.67-15.5Q325.67-16.3 325.42-17.1 325.17-17.9 324.57-17.9L324.57-17.9Q323.92-17.9 322.27-16.6 320.62-15.3 318.09-12.13 315.57-8.95 312.27-3.25L312.27-3.25 313.27-9.55Q315.97-13.95 318.07-16.45 320.17-18.95 321.87-20 323.57-21.05 325.02-21.05L325.02-21.05Q326.12-21.05 326.94-20.3 327.77-19.55 328.24-18.35 328.72-17.15 328.72-15.75L328.72-15.75Q328.72-15.25 328.39-14.73 328.07-14.2 327.27-14.15ZM311.42 0L311.42 0Q310.87 0 310.47-0.4 310.07-0.8 310.17-1.6L310.17-1.6 313.27-19.2Q313.42-20 313.94-20.4 314.47-20.8 315.02-20.8L315.02-20.8Q315.57-20.8 315.97-20.35 316.37-19.9 316.22-19L316.22-19 313.22-1.6Q313.07-0.8 312.54-0.4 312.02 0 311.42 0ZM333.76 0.4L333.76 0.4Q332.41 0.4 331.29-0.35 330.16-1.1 329.46-2.58 328.76-4.05 328.76-6.3L328.76-6.3Q328.76-9 329.54-11.6 330.31-14.2 331.74-16.28 333.16-18.35 335.09-19.6 337.01-20.85 339.31-20.85L339.31-20.85Q341.26-20.85 342.81-20.1 344.36-19.35 345.24-18 346.11-16.65 346.11-14.9L346.11-14.9Q346.11-13 345.39-10.9 344.66-8.8 343.44-6.8 342.21-4.8 340.61-3.18 339.01-1.55 337.26-0.58 335.51 0.4 333.76 0.4ZM334.51-2.65L334.51-2.65Q335.61-2.65 337.06-3.8 338.51-4.95 339.89-6.75 341.26-8.55 342.16-10.63 343.06-12.7 343.06-14.55L343.06-14.55Q343.06-15.95 342.19-16.98 341.31-18 339.56-18L339.56-18Q338.21-18 336.81-17.05 335.41-16.1 334.24-14.48 333.06-12.85 332.36-10.8 331.66-8.75 331.66-6.55L331.66-6.55Q331.66-4.4 332.44-3.53 333.21-2.65 334.51-2.65ZM352.41 0.25L352.41 0.25Q350.71 0.25 349.91-0.83 349.11-1.9 348.99-3.55 348.86-5.2 349.16-6.9L349.16-6.9 351.31-19.15Q351.41-20 351.99-20.4 352.56-20.8 353.11-20.8L353.11-20.8Q353.66-20.8 354.06-20.35 354.46-19.9 354.31-19.05L354.31-19.05 352.16-6.9Q352.01-6.1 351.94-5.1 351.86-4.1 352.06-3.38 352.26-2.65 353.01-2.65L353.01-2.65Q353.91-2.65 355.21-3.78 356.51-4.9 358.04-6.78 359.56-8.65 361.14-10.95 362.71-13.25 364.19-15.6 365.66-17.95 366.91-20L366.91-20 367.21-15.45Q366.26-13.85 364.96-11.78 363.66-9.7 362.14-7.6 360.61-5.5 358.99-3.73 357.36-1.95 355.69-0.85 354.01 0.25 352.41 0.25ZM364.71 0.05L364.71 0.05Q364.06 0.05 363.64-0.48 363.21-1 363.41-1.85L363.41-1.85 366.91-20Q367.16-20.4 367.49-20.6 367.81-20.8 368.46-20.8L368.46-20.8Q369.21-20.8 369.44-20.38 369.66-19.95 369.51-19.2L369.51-19.2 366.41-1.85Q366.31-1.15 366.04-0.73 365.76-0.3 365.41-0.13 365.06 0.05 364.71 0.05ZM370.71 17.8L370.71 17.8Q370.16 17.8 369.73 17.45 369.31 17.1 369.41 16.4L369.41 16.4 375.76-19.4Q375.91-20.1 376.43-20.45 376.96-20.8 377.51-20.8L377.51-20.8Q378.06-20.8 378.48-20.45 378.91-20.1 378.81-19.4L378.81-19.4 372.46 16.45Q372.31 17.1 371.78 17.45 371.26 17.8 370.71 17.8ZM393.11-16.45L393.11-16.45Q393.11-12.9 392.26-9.9 391.41-6.9 389.76-4.67 388.11-2.45 385.73-1.23 383.36 0 380.36 0L380.36 0 374.46 0 374.86-2.9 380.36-2.9Q383.01-2.9 385.23-4.3 387.46-5.7 388.81-8.65 390.16-11.6 390.16-16.15L390.16-16.15Q390.16-16.85 390.03-17.43 389.91-18 389.06-18L389.06-18Q388.41-18 387.13-16.98 385.86-15.95 384.28-14.25 382.71-12.55 381.13-10.53 379.56-8.5 378.28-6.5 377.01-4.5 376.36-2.9L376.36-2.9 374.21-2.9Q375.16-5.45 376.53-8.05 377.91-10.65 379.56-12.98 381.21-15.3 382.96-17.13 384.71-18.95 386.41-20 388.11-21.05 389.61-21.05L389.61-21.05Q391.36-21.05 392.23-19.9 393.11-18.75 393.11-16.45Z" opacity="1" transform="matrix(1,0,0,1,0,0)" fill="#b5b6b7" class="slogan-text-1" data-fill-palette-color="secondary" id="text-1"></path></svg></g></svg></g></svg></g></svg></g><g></g></svg></g></svg></g></svg></g></svg></g><defs></defs></svg><rect width="320" height="360" fill="none" stroke="none" visibility="hidden"></rect></g></svg></g></svg>